PathFileType	4	(X/Y/Z)	 s08c0403.trc
DataRate	CameraRate	NumFrames	NumMarkers	Units	OrigDataRate	OrigDataStartFrame	OrigNumFrames
200	200	4	50	mm	200	1001	2000
Frame#	Time	racr			lacr			c7			jug			rlel			rdr			llel			ldr			s2			lic			ric			lasi			rasi			rpsi			lpsi			rgt			lgt			rth1			rth2			rth3			rth4			rlfc			rmfc			rsh1			rsh2			rsh3			rsh4			rlmal			rmmal			rcal			rtoe			rmt5			lth1			lth2			lth4			lth3			llfc			lmfc			llmal			lmmal			lcal			lmt5			lsh1			lsh2			lsh3			lsh4			ltoe			SBIKE			LBIKE			RBIKE			
		X1	Y1	Z1	X2	Y2	Z2	X3	Y3	Z3	X4	Y4	Z4	X5	Y5	Z5	X6	Y6	Z6	X7	Y7	Z7	X8	Y8	Z8	X9	Y9	Z9	X10	Y10	Z10	X11	Y11	Z11	X12	Y12	Z12	X13	Y13	Z13	X14	Y14	Z14	X15	Y15	Z15	X16	Y16	Z16	X17	Y17	Z17	X18	Y18	Z18	X19	Y19	Z19	X20	Y20	Z20	X21	Y21	Z21	X22	Y22	Z22	X23	Y23	Z23	X24	Y24	Z24	X25	Y25	Z25	X26	Y26	Z26	X27	Y27	Z27	X28	Y28	Z28	X29	Y29	Z29	X30	Y30	Z30	X31	Y31	Z31	X32	Y32	Z32	X33	Y33	Z33	X34	Y34	Z34	X35	Y35	Z35	X36	Y36	Z36	X37	Y37	Z37	X38	Y38	Z38	X39	Y39	Z39	X40	Y40	Z40	X41	Y41	Z41	X42	Y42	Z42	X43	Y43	Z43	X44	Y44	Z44	X45	Y45	Z45	X46	Y46	Z46	X47	Y47	Z47	X48	Y48	Z48	X49	Y49	Z49	X50	Y50	Z50	
1001	5.0050	833.989538	1352.101931	-56.431654	796.176670	1377.753953	-403.572455	813.514395	1432.798655	-211.621704	737.509416	1291.998132	-223.826496	693.500642	1163.803814	121.476134	760.013978	939.270567	-33.934998	645.217799	1164.804073	-518.640901	765.677909	931.728146	-429.045004	241.549231	1272.204582	-268.839123	420.654231	1259.968736	-388.150094	372.927343	1246.937396	-76.160257	429.952295	1204.056320	-345.151730	392.667475	1192.964957	-110.499452	271.596532	1303.639028	-206.940750	286.189342	1312.980207	-302.813400	272.717071	1140.873703	-74.272348	368.360789	1139.187023	-432.777949	348.623242	981.844554	-52.990733	403.636245	912.376995	-47.511711	418.470304	827.192720	-57.662679	437.805617	927.421888	-47.526795	467.664686	719.597261	-63.346869	460.556398	706.651954	-173.392743	397.701953	605.862399	-34.656294	397.324124	517.020779	-49.218043	353.230608	443.124888	-57.090672	428.650978	512.162687	-75.100218	312.275373	328.050318	-64.657324	337.470793	346.147202	-151.047530	232.784114	312.614167	-114.355184	523.979256	246.677551	-97.203918	426.250219	231.118390	-36.333224	432.512168	1015.447134	-414.301043	486.415842	950.973431	-390.528518	512.588803	967.120030	-372.001121	503.000023	863.963297	-382.370518	512.678460	741.924810	-354.219222	476.061803	722.657167	-251.365802	147.747544	535.126461	-402.845039	172.312781	524.383911	-314.636213	94.587872	577.192895	-363.399814	143.012389	366.652499	-415.130487	409.449162	672.181898	-390.051709	345.292529	617.777406	-382.825493	260.656160	592.540826	-392.787034	352.629583	598.308019	-343.845135	206.321356	310.783586	-343.106904	-197.768858	923.221981	-223.134628	-5.781872	83.999490	-426.759451	-8.861532	80.418368	-28.375339	
1002	5.0100	833.534596	1354.868742	-58.422795	796.176508	1377.504162	-407.420749	813.195605	1434.881987	-215.636653	737.229887	1293.997354	-226.779104	693.037204	1165.635290	118.596125	760.408469	939.261640	-33.828771	642.735694	1163.820184	-519.911737	765.457701	931.662580	-428.557970	241.079378	1270.163659	-265.238411	418.282284	1260.027545	-386.939073	375.327558	1244.431016	-74.373702	428.785616	1204.226992	-344.001018	394.774066	1190.533750	-109.415630	271.678437	1301.203502	-203.542648	284.606405	1311.995481	-299.417867	274.310542	1136.703261	-72.838420	367.056756	1139.483321	-431.264009	347.028969	976.770341	-53.036064	400.259550	905.942915	-48.453062	412.961471	820.471464	-58.748571	434.804725	920.136353	-48.835000	459.797748	712.325075	-65.984470	451.033913	699.488991	-175.410062	390.564025	598.394266	-35.645328	391.219054	509.509388	-50.169191	347.968537	435.044473	-57.396186	422.349216	504.833408	-76.333294	308.149522	319.746408	-63.973480	332.752671	337.498314	-150.880229	228.511897	305.133056	-113.444014	519.121182	235.742340	-98.026240	421.533064	221.398867	-36.557005	433.521871	1016.595341	-413.038111	488.986793	953.628930	-389.023631	515.190238	970.454634	-369.522705	507.767048	867.124883	-380.487929	520.018658	746.372932	-350.913735	483.915847	727.213874	-247.672367	152.687437	544.497868	-401.853430	176.884848	533.642077	-313.553912	98.841831	586.586496	-362.825717	148.662657	376.434104	-415.049800	416.307964	677.999874	-387.259656	351.296843	624.581565	-380.610644	266.331892	600.537428	-390.956158	359.570939	607.298423	-345.662619	211.990846	320.610161	-342.983343	-197.790961	923.311299	-222.730396	-5.791228	83.991786	-426.763521	-8.870282	80.399315	-28.379527	
1003	5.0150	833.101325	1357.644420	-60.910315	796.150326	1377.240347	-411.497573	812.874282	1436.875716	-219.796219	737.004661	1295.888860	-229.938541	692.627827	1167.595136	115.606002	760.822809	939.254340	-33.767180	640.535336	1162.509578	-521.193574	765.148769	931.819539	-427.936179	240.535251	1268.416516	-261.168195	415.872764	1260.127824	-385.346669	378.031847	1241.880393	-72.637955	427.569649	1204.246474	-342.993883	397.007736	1187.894707	-108.299292	271.763858	1298.674866	-199.821367	283.395078	1310.659179	-295.494969	276.185914	1132.744914	-71.190865	365.417726	1139.864706	-429.700562	345.295359	972.193148	-52.753962	396.671796	899.919934	-49.346796	406.744683	814.339351	-60.316663	431.526360	913.251861	-50.117943	451.571495	705.388477	-68.090027	440.855527	692.597755	-177.187902	383.272082	591.066968	-36.591397	384.694020	502.218875	-50.754789	342.194049	427.289580	-57.551622	415.514365	497.719211	-77.270015	303.440976	311.775927	-63.197491	327.285157	329.151294	-150.524315	223.693830	297.961192	-112.360361	513.644983	225.213925	-98.809213	416.184161	212.024901	-36.711106	434.227968	1018.061140	-411.661020	491.438879	956.775010	-387.664287	517.047601	974.045446	-367.138895	512.613032	870.641978	-378.736598	526.946901	750.843537	-347.905580	492.057309	731.813587	-244.205233	157.679067	553.755034	-400.736346	182.203983	542.789981	-311.796660	103.316702	595.571823	-362.202793	154.931128	386.029157	-415.259885	422.863622	683.901104	-383.927657	357.211382	631.100337	-378.235994	272.088066	608.486827	-389.110030	365.112163	613.676215	-343.288064	218.390221	330.436527	-342.853692	-197.847840	923.261302	-222.802294	-5.883301	83.837465	-426.700292	-8.890477	80.396287	-28.386270	
1004	5.0200	832.844288	1360.525478	-63.449621	796.148132	1376.740133	-415.433958	812.585392	1438.837074	-224.180938	736.917672	1297.687478	-233.152848	692.281651	1169.680258	112.526766	761.216363	939.211706	-33.696175	638.851691	1160.928484	-521.929205	764.807472	931.897043	-427.461958	240.007516	1266.908394	-256.937517	413.285960	1260.251038	-383.936422	380.981179	1239.470043	-70.918838	426.211863	1204.471121	-341.877557	399.369544	1185.041598	-107.151893	272.042123	1296.383520	-196.268391	282.191600	1309.336105	-291.229666	278.183522	1129.107611	-69.452691	363.402393	1140.285854	-427.563632	343.377376	968.235129	-52.251043	393.044169	894.734273	-49.871722	400.855478	808.666849	-61.800585	428.023921	906.893149	-51.228950	442.782520	698.837286	-70.049179	429.451745	686.433796	-178.819239	375.723487	584.131864	-37.464163	377.717720	495.368638	-51.330103	335.975250	419.888463	-57.554151	408.255885	490.994577	-78.355179	298.077483	304.248200	-62.368952	321.345708	321.284343	-150.112530	218.430816	291.355897	-111.158024	507.807657	215.214481	-99.226670	410.371806	202.995185	-36.840336	434.840299	1019.768874	-409.933776	493.751162	960.199306	-385.658175	518.631043	978.198630	-364.930075	517.451663	874.818347	-376.885488	533.627684	755.599451	-345.245300	499.675481	735.813044	-241.501330	162.952236	562.644419	-399.560895	186.567762	551.311931	-311.524029	107.809184	604.193186	-361.457009	161.586687	395.294184	-415.115787	429.276644	689.904175	-381.511941	363.234154	638.049670	-376.247574	277.873847	616.412349	-387.410974	370.798593	620.054451	-341.382465	225.391388	340.289836	-342.841193	-197.876205	923.223678	-222.839733	-5.864461	83.872141	-426.676784	-8.899450	80.389484	-28.380732	
